<svg version="1.1"
	 xmlns="http://www.w3.org/2000/svg" xmlns:xlink="http://www.w3.org/1999/xlink" xmlns:a="http://ns.adobe.com/AdobeSVGViewerExtensions/3.0/"
	 x="0px" y="0px" width="32px" height="37.5px" viewBox="0 0 32 37.5" style="enable-background:new 0 0 32 37.5;"
	 xml:space="preserve">
<style type="text/css">
	.st0{opacity:0.2;}
</style>
<defs>
</defs>
<g>
	<path d="M32,21.7c0,9.3-5.9,15.5-15.7,15.5C7.1,37.3,0.6,31,0.6,21h6.2c0,6,3.3,9.9,9.4,9.9c6.1,0,8.9-3.7,8.9-9.1V7h-9V0
		c4,0,11,0,16,0V21.7z"/>
</g>
<g class="st0">
	<path d="M0,21c0,9.7,5.9,16.6,16.2,16.6c9.5,0,14.2-6.5,14.2-16.5h-2.9c0,6-4.9,9.9-11.3,9.9C9.8,30.9,7,26.6,7,21V7h9V0
		C12,0,5.1,0,0,0V21z"/>
</g>
<rect width="7" height="7"/>
</svg>
